# xmcd
#
# Track frame offsets:
#	150
#	17850
#	32670
#	54500
#	68710
#	81750
#	101010
#	128638
#	147375
#	166193
#	186640
#	213988
#	235098
#	250033
#
# Disc length: 3620 seconds
#
# Revision: 1
# Processed by: cddbd v1.5.2PL0 Copyright (c) Steve Scherf et al.
# Submitted via: audiograbber 1.83.01
#
DISCID=be0e220e
DTITLE=Eric Clapton - The Last Rehearsal '94
DYEAR=1994
DGENRE=Blues
TTITLE0=Hoochie Coochie Man
TTITLE1=I'm Tore Down
TTITLE2=Sinner's Player
TTITLE3=Motherless Child
TTITLE4=Malted Mild
TTITLE5=Born Under A Bad Sign
TTITLE6=Someday After A While
TTITLE7=It Hurts Me Too
TTITLE8="44"
TTITLE9=Five Long Years
TTITLE10=Crossroad
TTITLE11=Ain't Nobody's Business
TTITLE12=I'm Tore Down (Bonus Track - Saturday Night Live '94)
TTITLE13=Five Long Years (Bonus Track - Saturday Night Live '94)
EXTD=
EXTT0=
EXTT1=
EXTT2=
EXTT3=
EXTT4=
EXTT5=
EXTT6=
EXTT7=
EXTT8=
EXTT9=
EXTT10=
EXTT11=
EXTT12=
EXTT13=
PLAYORDER=
